<mxfile host="Electron" modified="2024-12-10T18:00:49.710Z" agent="Mozilla/5.0 (Windows NT 10.0; Win64; x64) AppleWebKit/537.36 (KHTML, like Gecko) draw.io/23.0.2 Chrome/120.0.6099.109 Electron/28.1.0 Safari/537.36" etag="j8RIFM9-pD5ogSBcMRXd" version="23.0.2" type="device">
  <diagram id="C5RBs43oDa-KdzZeNtuy" name="Page-1">
    <mxGraphModel dx="2074" dy="836" grid="0" gridSize="10" guides="1" tooltips="1" connect="1" arrows="1" fold="1" page="0" pageScale="1" pageWidth="827" pageHeight="1169" background="none" math="0" shadow="0">
      <root>
        <mxCell id="WIyWlLk6GJQsqaUBKTNV-0" />
        <mxCell id="WIyWlLk6GJQsqaUBKTNV-1" parent="WIyWlLk6GJQsqaUBKTNV-0" />
        <mxCell id="zkfFHV4jXpPFQw0GAbJ--0" value="Sensor" style="swimlane;fontStyle=2;align=center;verticalAlign=top;childLayout=stackLayout;horizontal=1;startSize=26;horizontalStack=0;resizeParent=1;resizeLast=0;collapsible=1;marginBottom=0;rounded=0;shadow=0;strokeWidth=1;" parent="WIyWlLk6GJQsqaUBKTNV-1" vertex="1">
          <mxGeometry x="17" y="332" width="251" height="138" as="geometry">
            <mxRectangle x="230" y="140" width="160" height="26" as="alternateBounds" />
          </mxGeometry>
        </mxCell>
        <mxCell id="zkfFHV4jXpPFQw0GAbJ--1" value="Attributes : " style="text;align=left;verticalAlign=top;spacingLeft=4;spacingRight=4;overflow=hidden;rotatable=0;points=[[0,0.5],[1,0.5]];portConstraint=eastwest;" parent="zkfFHV4jXpPFQw0GAbJ--0" vertex="1">
          <mxGeometry y="26" width="251" height="26" as="geometry" />
        </mxCell>
        <mxCell id="zkfFHV4jXpPFQw0GAbJ--2" value="- pin : uint8_t " style="text;align=left;verticalAlign=top;spacingLeft=4;spacingRight=4;overflow=hidden;rotatable=0;points=[[0,0.5],[1,0.5]];portConstraint=eastwest;rounded=0;shadow=0;html=0;" parent="zkfFHV4jXpPFQw0GAbJ--0" vertex="1">
          <mxGeometry y="52" width="251" height="26" as="geometry" />
        </mxCell>
        <mxCell id="zkfFHV4jXpPFQw0GAbJ--4" value="" style="line;html=1;strokeWidth=1;align=left;verticalAlign=middle;spacingTop=-1;spacingLeft=3;spacingRight=3;rotatable=0;labelPosition=right;points=[];portConstraint=eastwest;" parent="zkfFHV4jXpPFQw0GAbJ--0" vertex="1">
          <mxGeometry y="78" width="251" height="8" as="geometry" />
        </mxCell>
        <mxCell id="zkfFHV4jXpPFQw0GAbJ--5" value="Operations :" style="text;align=left;verticalAlign=top;spacingLeft=4;spacingRight=4;overflow=hidden;rotatable=0;points=[[0,0.5],[1,0.5]];portConstraint=eastwest;" parent="zkfFHV4jXpPFQw0GAbJ--0" vertex="1">
          <mxGeometry y="86" width="251" height="26" as="geometry" />
        </mxCell>
        <mxCell id="tgKsRezWIIjD_MsJJ-U3-1" value="+ operator==(const Sensor&amp; sensor2) : bool" style="text;align=left;verticalAlign=top;spacingLeft=4;spacingRight=4;overflow=hidden;rotatable=0;points=[[0,0.5],[1,0.5]];portConstraint=eastwest;rounded=0;shadow=0;html=0;" vertex="1" parent="zkfFHV4jXpPFQw0GAbJ--0">
          <mxGeometry y="112" width="251" height="26" as="geometry" />
        </mxCell>
        <mxCell id="zkfFHV4jXpPFQw0GAbJ--6" value="RotaryAngleSensor" style="swimlane;fontStyle=0;align=center;verticalAlign=top;childLayout=stackLayout;horizontal=1;startSize=26;horizontalStack=0;resizeParent=1;resizeLast=0;collapsible=1;marginBottom=0;rounded=0;shadow=0;strokeWidth=1;" parent="WIyWlLk6GJQsqaUBKTNV-1" vertex="1">
          <mxGeometry x="-50" y="680" width="160" height="188" as="geometry">
            <mxRectangle x="130" y="380" width="160" height="26" as="alternateBounds" />
          </mxGeometry>
        </mxCell>
        <mxCell id="G2s_k66Dnmn7m37SUlgd-62" value="Attributes : " style="text;align=left;verticalAlign=top;spacingLeft=4;spacingRight=4;overflow=hidden;rotatable=0;points=[[0,0.5],[1,0.5]];portConstraint=eastwest;" parent="zkfFHV4jXpPFQw0GAbJ--6" vertex="1">
          <mxGeometry y="26" width="160" height="26" as="geometry" />
        </mxCell>
        <mxCell id="G2s_k66Dnmn7m37SUlgd-94" value="- angle : float&#xa;- adcRef : const float&#xa;- Vcc : const float&#xa;- fullAngle : const int" style="text;align=left;verticalAlign=top;spacingLeft=4;spacingRight=4;overflow=hidden;rotatable=0;points=[[0,0.5],[1,0.5]];portConstraint=eastwest;rounded=0;shadow=0;html=0;" parent="zkfFHV4jXpPFQw0GAbJ--6" vertex="1">
          <mxGeometry y="52" width="160" height="72" as="geometry" />
        </mxCell>
        <mxCell id="zkfFHV4jXpPFQw0GAbJ--9" value="" style="line;html=1;strokeWidth=1;align=left;verticalAlign=middle;spacingTop=-1;spacingLeft=3;spacingRight=3;rotatable=0;labelPosition=right;points=[];portConstraint=eastwest;" parent="zkfFHV4jXpPFQw0GAbJ--6" vertex="1">
          <mxGeometry y="124" width="160" height="8" as="geometry" />
        </mxCell>
        <mxCell id="G2s_k66Dnmn7m37SUlgd-73" value="Operations :" style="text;align=left;verticalAlign=top;spacingLeft=4;spacingRight=4;overflow=hidden;rotatable=0;points=[[0,0.5],[1,0.5]];portConstraint=eastwest;" parent="zkfFHV4jXpPFQw0GAbJ--6" vertex="1">
          <mxGeometry y="132" width="160" height="26" as="geometry" />
        </mxCell>
        <mxCell id="G2s_k66Dnmn7m37SUlgd-96" value="+ getAngle() : float" style="text;align=left;verticalAlign=top;spacingLeft=4;spacingRight=4;overflow=hidden;rotatable=0;points=[[0,0.5],[1,0.5]];portConstraint=eastwest;rounded=0;shadow=0;html=0;" parent="zkfFHV4jXpPFQw0GAbJ--6" vertex="1">
          <mxGeometry y="158" width="160" height="30" as="geometry" />
        </mxCell>
        <mxCell id="zkfFHV4jXpPFQw0GAbJ--12" value="" style="endArrow=block;endSize=10;endFill=0;shadow=0;strokeWidth=3;rounded=0;edgeStyle=elbowEdgeStyle;elbow=vertical;fillColor=#a20025;strokeColor=#6F0000;" parent="WIyWlLk6GJQsqaUBKTNV-1" source="zkfFHV4jXpPFQw0GAbJ--6" target="zkfFHV4jXpPFQw0GAbJ--0" edge="1">
          <mxGeometry width="160" relative="1" as="geometry">
            <mxPoint x="-280" y="403" as="sourcePoint" />
            <mxPoint x="-280" y="403" as="targetPoint" />
          </mxGeometry>
        </mxCell>
        <mxCell id="zkfFHV4jXpPFQw0GAbJ--13" value="TouchSensor" style="swimlane;fontStyle=0;align=center;verticalAlign=top;childLayout=stackLayout;horizontal=1;startSize=26;horizontalStack=0;resizeParent=1;resizeLast=0;collapsible=1;marginBottom=0;rounded=0;shadow=0;strokeWidth=1;" parent="WIyWlLk6GJQsqaUBKTNV-1" vertex="1">
          <mxGeometry x="150" y="680" width="185" height="300" as="geometry">
            <mxRectangle x="340" y="380" width="170" height="26" as="alternateBounds" />
          </mxGeometry>
        </mxCell>
        <mxCell id="G2s_k66Dnmn7m37SUlgd-64" value="Attributes : " style="text;align=left;verticalAlign=top;spacingLeft=4;spacingRight=4;overflow=hidden;rotatable=0;points=[[0,0.5],[1,0.5]];portConstraint=eastwest;" parent="zkfFHV4jXpPFQw0GAbJ--13" vertex="1">
          <mxGeometry y="26" width="185" height="26" as="geometry" />
        </mxCell>
        <mxCell id="G2s_k66Dnmn7m37SUlgd-97" value="- touchStatus : bool&#xa;- timerSet : bool&#xa;- previousTime : unsigned long&#xa;- currentTime : unsigned long&#xa;- previewMorse : String&#xa;- previewLetterCode : String&#xa;- morseText : String" style="text;align=left;verticalAlign=top;spacingLeft=4;spacingRight=4;overflow=hidden;rotatable=0;points=[[0,0.5],[1,0.5]];portConstraint=eastwest;rounded=0;shadow=0;html=0;" parent="zkfFHV4jXpPFQw0GAbJ--13" vertex="1">
          <mxGeometry y="52" width="185" height="108" as="geometry" />
        </mxCell>
        <mxCell id="zkfFHV4jXpPFQw0GAbJ--15" value="" style="line;html=1;strokeWidth=1;align=left;verticalAlign=middle;spacingTop=-1;spacingLeft=3;spacingRight=3;rotatable=0;labelPosition=right;points=[];portConstraint=eastwest;" parent="zkfFHV4jXpPFQw0GAbJ--13" vertex="1">
          <mxGeometry y="160" width="185" height="18" as="geometry" />
        </mxCell>
        <mxCell id="G2s_k66Dnmn7m37SUlgd-74" value="Operations :" style="text;align=left;verticalAlign=top;spacingLeft=4;spacingRight=4;overflow=hidden;rotatable=0;points=[[0,0.5],[1,0.5]];portConstraint=eastwest;" parent="zkfFHV4jXpPFQw0GAbJ--13" vertex="1">
          <mxGeometry y="178" width="185" height="26" as="geometry" />
        </mxCell>
        <mxCell id="G2s_k66Dnmn7m37SUlgd-98" value="+ getTouchStatus() : bool&#xa;+ getPreviewMorse() : String&#xa;+ getMorseText() : String&#xa;+ clearMorseText() : void&#xa;+ readMorseChar() : char&#xa;+ decodeMorse() : void" style="text;align=left;verticalAlign=top;spacingLeft=4;spacingRight=4;overflow=hidden;rotatable=0;points=[[0,0.5],[1,0.5]];portConstraint=eastwest;rounded=0;shadow=0;html=0;" parent="zkfFHV4jXpPFQw0GAbJ--13" vertex="1">
          <mxGeometry y="204" width="185" height="96" as="geometry" />
        </mxCell>
        <mxCell id="zkfFHV4jXpPFQw0GAbJ--16" value="" style="endArrow=block;endSize=10;endFill=0;shadow=0;strokeWidth=3;rounded=0;edgeStyle=elbowEdgeStyle;elbow=vertical;fillColor=#a20025;strokeColor=#6F0000;" parent="WIyWlLk6GJQsqaUBKTNV-1" source="zkfFHV4jXpPFQw0GAbJ--13" target="zkfFHV4jXpPFQw0GAbJ--0" edge="1">
          <mxGeometry width="160" relative="1" as="geometry">
            <mxPoint x="-270" y="573" as="sourcePoint" />
            <mxPoint x="-170" y="471" as="targetPoint" />
          </mxGeometry>
        </mxCell>
        <mxCell id="G2s_k66Dnmn7m37SUlgd-0" value="Actuator" style="swimlane;fontStyle=2;align=center;verticalAlign=top;childLayout=stackLayout;horizontal=1;startSize=26;horizontalStack=0;resizeParent=1;resizeLast=0;collapsible=1;marginBottom=0;rounded=0;shadow=0;strokeWidth=1;" parent="WIyWlLk6GJQsqaUBKTNV-1" vertex="1">
          <mxGeometry x="625" y="200" width="160" height="138" as="geometry">
            <mxRectangle x="230" y="140" width="160" height="26" as="alternateBounds" />
          </mxGeometry>
        </mxCell>
        <mxCell id="G2s_k66Dnmn7m37SUlgd-71" value="Attributes : " style="text;align=left;verticalAlign=top;spacingLeft=4;spacingRight=4;overflow=hidden;rotatable=0;points=[[0,0.5],[1,0.5]];portConstraint=eastwest;" parent="G2s_k66Dnmn7m37SUlgd-0" vertex="1">
          <mxGeometry y="26" width="160" height="26" as="geometry" />
        </mxCell>
        <mxCell id="G2s_k66Dnmn7m37SUlgd-82" value="- pin : uint8_t" style="text;align=left;verticalAlign=top;spacingLeft=4;spacingRight=4;overflow=hidden;rotatable=0;points=[[0,0.5],[1,0.5]];portConstraint=eastwest;rounded=0;shadow=0;html=0;" parent="G2s_k66Dnmn7m37SUlgd-0" vertex="1">
          <mxGeometry y="52" width="160" height="26" as="geometry" />
        </mxCell>
        <mxCell id="G2s_k66Dnmn7m37SUlgd-4" value="" style="line;html=1;strokeWidth=1;align=left;verticalAlign=middle;spacingTop=-1;spacingLeft=3;spacingRight=3;rotatable=0;labelPosition=right;points=[];portConstraint=eastwest;" parent="G2s_k66Dnmn7m37SUlgd-0" vertex="1">
          <mxGeometry y="78" width="160" height="8" as="geometry" />
        </mxCell>
        <mxCell id="G2s_k66Dnmn7m37SUlgd-81" value="Operations :" style="text;align=left;verticalAlign=top;spacingLeft=4;spacingRight=4;overflow=hidden;rotatable=0;points=[[0,0.5],[1,0.5]];portConstraint=eastwest;" parent="G2s_k66Dnmn7m37SUlgd-0" vertex="1">
          <mxGeometry y="86" width="160" height="26" as="geometry" />
        </mxCell>
        <mxCell id="G2s_k66Dnmn7m37SUlgd-6" value="Led" style="swimlane;fontStyle=0;align=center;verticalAlign=top;childLayout=stackLayout;horizontal=1;startSize=26;horizontalStack=0;resizeParent=1;resizeLast=0;collapsible=1;marginBottom=0;rounded=0;shadow=0;strokeWidth=1;" parent="WIyWlLk6GJQsqaUBKTNV-1" vertex="1">
          <mxGeometry x="610" y="430" width="190" height="190" as="geometry">
            <mxRectangle x="130" y="380" width="160" height="26" as="alternateBounds" />
          </mxGeometry>
        </mxCell>
        <mxCell id="G2s_k66Dnmn7m37SUlgd-69" value="Attributes : " style="text;align=left;verticalAlign=top;spacingLeft=4;spacingRight=4;overflow=hidden;rotatable=0;points=[[0,0.5],[1,0.5]];portConstraint=eastwest;" parent="G2s_k66Dnmn7m37SUlgd-6" vertex="1">
          <mxGeometry y="26" width="190" height="26" as="geometry" />
        </mxCell>
        <mxCell id="G2s_k66Dnmn7m37SUlgd-107" value="- ledStatus : bool" style="text;align=left;verticalAlign=top;spacingLeft=4;spacingRight=4;overflow=hidden;rotatable=0;points=[[0,0.5],[1,0.5]];portConstraint=eastwest;rounded=0;shadow=0;html=0;" parent="G2s_k66Dnmn7m37SUlgd-6" vertex="1">
          <mxGeometry y="52" width="190" height="38" as="geometry" />
        </mxCell>
        <mxCell id="G2s_k66Dnmn7m37SUlgd-9" value="" style="line;html=1;strokeWidth=1;align=left;verticalAlign=middle;spacingTop=-1;spacingLeft=3;spacingRight=3;rotatable=0;labelPosition=right;points=[];portConstraint=eastwest;" parent="G2s_k66Dnmn7m37SUlgd-6" vertex="1">
          <mxGeometry y="90" width="190" height="8" as="geometry" />
        </mxCell>
        <mxCell id="G2s_k66Dnmn7m37SUlgd-79" value="Operations :" style="text;align=left;verticalAlign=top;spacingLeft=4;spacingRight=4;overflow=hidden;rotatable=0;points=[[0,0.5],[1,0.5]];portConstraint=eastwest;" parent="G2s_k66Dnmn7m37SUlgd-6" vertex="1">
          <mxGeometry y="98" width="190" height="26" as="geometry" />
        </mxCell>
        <mxCell id="G2s_k66Dnmn7m37SUlgd-108" value="+ setLedStatus(bool state) : void&#xa;+ getLedStatus() : bool&#xa;+ swapLedStatus() : void" style="text;align=left;verticalAlign=top;spacingLeft=4;spacingRight=4;overflow=hidden;rotatable=0;points=[[0,0.5],[1,0.5]];portConstraint=eastwest;rounded=0;shadow=0;html=0;" parent="G2s_k66Dnmn7m37SUlgd-6" vertex="1">
          <mxGeometry y="124" width="190" height="66" as="geometry" />
        </mxCell>
        <mxCell id="G2s_k66Dnmn7m37SUlgd-12" value="" style="endArrow=block;endSize=10;endFill=0;shadow=0;strokeWidth=3;rounded=0;edgeStyle=elbowEdgeStyle;elbow=vertical;fillColor=#a20025;strokeColor=#6F0000;" parent="WIyWlLk6GJQsqaUBKTNV-1" source="G2s_k66Dnmn7m37SUlgd-6" target="G2s_k66Dnmn7m37SUlgd-0" edge="1">
          <mxGeometry width="160" relative="1" as="geometry">
            <mxPoint x="605" y="283" as="sourcePoint" />
            <mxPoint x="605" y="283" as="targetPoint" />
          </mxGeometry>
        </mxCell>
        <mxCell id="G2s_k66Dnmn7m37SUlgd-17" value="Button" style="swimlane;fontStyle=0;align=center;verticalAlign=top;childLayout=stackLayout;horizontal=1;startSize=26;horizontalStack=0;resizeParent=1;resizeLast=0;collapsible=1;marginBottom=0;rounded=0;shadow=0;strokeWidth=1;" parent="WIyWlLk6GJQsqaUBKTNV-1" vertex="1">
          <mxGeometry x="-250" y="680" width="180" height="230" as="geometry">
            <mxRectangle x="130" y="380" width="160" height="26" as="alternateBounds" />
          </mxGeometry>
        </mxCell>
        <mxCell id="G2s_k66Dnmn7m37SUlgd-63" value="Attributes : " style="text;align=left;verticalAlign=top;spacingLeft=4;spacingRight=4;overflow=hidden;rotatable=0;points=[[0,0.5],[1,0.5]];portConstraint=eastwest;" parent="G2s_k66Dnmn7m37SUlgd-17" vertex="1">
          <mxGeometry y="26" width="180" height="26" as="geometry" />
        </mxCell>
        <mxCell id="G2s_k66Dnmn7m37SUlgd-99" value="- status : bool&#xa;- previousStatus : bool&#xa;- wasPushedAlreadyexe : bool&#xa;- previousTime : unsigned long&#xa;- currentTime : unsigned long" style="text;align=left;verticalAlign=top;spacingLeft=4;spacingRight=4;overflow=hidden;rotatable=0;points=[[0,0.5],[1,0.5]];portConstraint=eastwest;rounded=0;shadow=0;html=0;" parent="G2s_k66Dnmn7m37SUlgd-17" vertex="1">
          <mxGeometry y="52" width="180" height="98" as="geometry" />
        </mxCell>
        <mxCell id="G2s_k66Dnmn7m37SUlgd-20" value="" style="line;html=1;strokeWidth=1;align=left;verticalAlign=middle;spacingTop=-1;spacingLeft=3;spacingRight=3;rotatable=0;labelPosition=right;points=[];portConstraint=eastwest;" parent="G2s_k66Dnmn7m37SUlgd-17" vertex="1">
          <mxGeometry y="150" width="180" height="8" as="geometry" />
        </mxCell>
        <mxCell id="G2s_k66Dnmn7m37SUlgd-72" value="Operations :" style="text;align=left;verticalAlign=top;spacingLeft=4;spacingRight=4;overflow=hidden;rotatable=0;points=[[0,0.5],[1,0.5]];portConstraint=eastwest;" parent="G2s_k66Dnmn7m37SUlgd-17" vertex="1">
          <mxGeometry y="158" width="180" height="26" as="geometry" />
        </mxCell>
        <mxCell id="G2s_k66Dnmn7m37SUlgd-100" value="+ getStatus() : bool&#xa;+ wasPushed() : bool&#xa;" style="text;align=left;verticalAlign=top;spacingLeft=4;spacingRight=4;overflow=hidden;rotatable=0;points=[[0,0.5],[1,0.5]];portConstraint=eastwest;rounded=0;shadow=0;html=0;" parent="G2s_k66Dnmn7m37SUlgd-17" vertex="1">
          <mxGeometry y="184" width="180" height="46" as="geometry" />
        </mxCell>
        <mxCell id="G2s_k66Dnmn7m37SUlgd-28" value="rgb_lcd" style="swimlane;fontStyle=2;align=center;verticalAlign=top;childLayout=stackLayout;horizontal=1;startSize=26;horizontalStack=0;resizeParent=1;resizeLast=0;collapsible=1;marginBottom=0;rounded=0;shadow=0;strokeWidth=1;" parent="WIyWlLk6GJQsqaUBKTNV-1" vertex="1">
          <mxGeometry x="859" y="199" width="160" height="97" as="geometry">
            <mxRectangle x="230" y="140" width="160" height="26" as="alternateBounds" />
          </mxGeometry>
        </mxCell>
        <mxCell id="G2s_k66Dnmn7m37SUlgd-67" value="Attributes : " style="text;align=left;verticalAlign=top;spacingLeft=4;spacingRight=4;overflow=hidden;rotatable=0;points=[[0,0.5],[1,0.5]];portConstraint=eastwest;" parent="G2s_k66Dnmn7m37SUlgd-28" vertex="1">
          <mxGeometry y="26" width="160" height="26" as="geometry" />
        </mxCell>
        <mxCell id="G2s_k66Dnmn7m37SUlgd-32" value="" style="line;html=1;strokeWidth=1;align=left;verticalAlign=middle;spacingTop=-1;spacingLeft=3;spacingRight=3;rotatable=0;labelPosition=right;points=[];portConstraint=eastwest;" parent="G2s_k66Dnmn7m37SUlgd-28" vertex="1">
          <mxGeometry y="52" width="160" height="8" as="geometry" />
        </mxCell>
        <mxCell id="G2s_k66Dnmn7m37SUlgd-77" value="Operations :" style="text;align=left;verticalAlign=top;spacingLeft=4;spacingRight=4;overflow=hidden;rotatable=0;points=[[0,0.5],[1,0.5]];portConstraint=eastwest;" parent="G2s_k66Dnmn7m37SUlgd-28" vertex="1">
          <mxGeometry y="60" width="160" height="26" as="geometry" />
        </mxCell>
        <mxCell id="G2s_k66Dnmn7m37SUlgd-34" value="ScreenLcd" style="swimlane;fontStyle=0;align=center;verticalAlign=top;childLayout=stackLayout;horizontal=1;startSize=26;horizontalStack=0;resizeParent=1;resizeLast=0;collapsible=1;marginBottom=0;rounded=0;shadow=0;strokeWidth=1;" parent="WIyWlLk6GJQsqaUBKTNV-1" vertex="1">
          <mxGeometry x="824" y="474" width="230" height="270" as="geometry">
            <mxRectangle x="130" y="380" width="160" height="26" as="alternateBounds" />
          </mxGeometry>
        </mxCell>
        <mxCell id="G2s_k66Dnmn7m37SUlgd-68" value="Attributes : " style="text;align=left;verticalAlign=top;spacingLeft=4;spacingRight=4;overflow=hidden;rotatable=0;points=[[0,0.5],[1,0.5]];portConstraint=eastwest;" parent="G2s_k66Dnmn7m37SUlgd-34" vertex="1">
          <mxGeometry y="26" width="230" height="26" as="geometry" />
        </mxCell>
        <mxCell id="G2s_k66Dnmn7m37SUlgd-101" value="- interval : const unsigned int&#xa;- timerIsSet : bool&#xa;- previousTime : unsigned long&#xa;- currentTime : unsigned long&#xa;- idxStrDisplay : unsigned long&#xa;- lastText : String&#xa;- lastTextFirstline : String&#xa;- lastTextSecondLine : String&#xa;&#xa;" style="text;align=left;verticalAlign=top;spacingLeft=4;spacingRight=4;overflow=hidden;rotatable=0;points=[[0,0.5],[1,0.5]];portConstraint=eastwest;rounded=0;shadow=0;html=0;" parent="G2s_k66Dnmn7m37SUlgd-34" vertex="1">
          <mxGeometry y="52" width="230" height="128" as="geometry" />
        </mxCell>
        <mxCell id="G2s_k66Dnmn7m37SUlgd-37" value="" style="line;html=1;strokeWidth=1;align=left;verticalAlign=middle;spacingTop=-1;spacingLeft=3;spacingRight=3;rotatable=0;labelPosition=right;points=[];portConstraint=eastwest;" parent="G2s_k66Dnmn7m37SUlgd-34" vertex="1">
          <mxGeometry y="180" width="230" height="8" as="geometry" />
        </mxCell>
        <mxCell id="G2s_k66Dnmn7m37SUlgd-78" value="Operations :" style="text;align=left;verticalAlign=top;spacingLeft=4;spacingRight=4;overflow=hidden;rotatable=0;points=[[0,0.5],[1,0.5]];portConstraint=eastwest;" parent="G2s_k66Dnmn7m37SUlgd-34" vertex="1">
          <mxGeometry y="188" width="230" height="26" as="geometry" />
        </mxCell>
        <mxCell id="G2s_k66Dnmn7m37SUlgd-102" value="+ display FirstLine(String  text) : void&#xa;+ display SecondLine(String text) : void&#xa;+ display(String text) : void" style="text;align=left;verticalAlign=top;spacingLeft=4;spacingRight=4;overflow=hidden;rotatable=0;points=[[0,0.5],[1,0.5]];portConstraint=eastwest;rounded=0;shadow=0;html=0;" parent="G2s_k66Dnmn7m37SUlgd-34" vertex="1">
          <mxGeometry y="214" width="230" height="56" as="geometry" />
        </mxCell>
        <mxCell id="G2s_k66Dnmn7m37SUlgd-40" value="" style="endArrow=block;endSize=10;endFill=0;shadow=0;strokeWidth=3;rounded=0;edgeStyle=elbowEdgeStyle;elbow=vertical;fillColor=#a20025;strokeColor=#6F0000;" parent="WIyWlLk6GJQsqaUBKTNV-1" source="G2s_k66Dnmn7m37SUlgd-34" target="G2s_k66Dnmn7m37SUlgd-28" edge="1">
          <mxGeometry width="160" relative="1" as="geometry">
            <mxPoint x="804" y="317" as="sourcePoint" />
            <mxPoint x="804" y="317" as="targetPoint" />
          </mxGeometry>
        </mxCell>
        <mxCell id="G2s_k66Dnmn7m37SUlgd-45" value="Game" style="swimlane;fontStyle=2;align=center;verticalAlign=top;childLayout=stackLayout;horizontal=1;startSize=26;horizontalStack=0;resizeParent=1;resizeLast=0;collapsible=1;marginBottom=0;rounded=0;shadow=0;strokeWidth=1;" parent="WIyWlLk6GJQsqaUBKTNV-1" vertex="1">
          <mxGeometry x="320" y="80" width="240" height="260" as="geometry">
            <mxRectangle x="230" y="140" width="160" height="26" as="alternateBounds" />
          </mxGeometry>
        </mxCell>
        <mxCell id="G2s_k66Dnmn7m37SUlgd-65" value="Attributes : " style="text;align=left;verticalAlign=top;spacingLeft=4;spacingRight=4;overflow=hidden;rotatable=0;points=[[0,0.5],[1,0.5]];portConstraint=eastwest;" parent="G2s_k66Dnmn7m37SUlgd-45" vertex="1">
          <mxGeometry y="26" width="240" height="26" as="geometry" />
        </mxCell>
        <mxCell id="G2s_k66Dnmn7m37SUlgd-103" value="# touchSenso : static TouchSensor&#xa;# led : static Led&#xa;# button : static Button&#xa;# lcd : static ScreenLcd&#xa;# angleSensor : static RotaryAngleSensor&#xa;# lightSensor : static LightSensor&#xa;# step : int" style="text;align=left;verticalAlign=top;spacingLeft=4;spacingRight=4;overflow=hidden;rotatable=0;points=[[0,0.5],[1,0.5]];portConstraint=eastwest;rounded=0;shadow=0;html=0;" parent="G2s_k66Dnmn7m37SUlgd-45" vertex="1">
          <mxGeometry y="52" width="240" height="114" as="geometry" />
        </mxCell>
        <mxCell id="G2s_k66Dnmn7m37SUlgd-49" value="" style="line;html=1;strokeWidth=1;align=left;verticalAlign=middle;spacingTop=-1;spacingLeft=3;spacingRight=3;rotatable=0;labelPosition=right;points=[];portConstraint=eastwest;" parent="G2s_k66Dnmn7m37SUlgd-45" vertex="1">
          <mxGeometry y="166" width="240" height="8" as="geometry" />
        </mxCell>
        <mxCell id="G2s_k66Dnmn7m37SUlgd-75" value="Operations :" style="text;align=left;verticalAlign=top;spacingLeft=4;spacingRight=4;overflow=hidden;rotatable=0;points=[[0,0.5],[1,0.5]];portConstraint=eastwest;" parent="G2s_k66Dnmn7m37SUlgd-45" vertex="1">
          <mxGeometry y="174" width="240" height="26" as="geometry" />
        </mxCell>
        <mxCell id="G2s_k66Dnmn7m37SUlgd-104" value="+ getStep() : int&#xa;+ setStep(int stepNumber) : void&#xa;+ nextStep() : void&#xa;" style="text;align=left;verticalAlign=top;spacingLeft=4;spacingRight=4;overflow=hidden;rotatable=0;points=[[0,0.5],[1,0.5]];portConstraint=eastwest;rounded=0;shadow=0;html=0;" parent="G2s_k66Dnmn7m37SUlgd-45" vertex="1">
          <mxGeometry y="200" width="240" height="60" as="geometry" />
        </mxCell>
        <mxCell id="G2s_k66Dnmn7m37SUlgd-51" value="Adventure" style="swimlane;fontStyle=0;align=center;verticalAlign=top;childLayout=stackLayout;horizontal=1;startSize=26;horizontalStack=0;resizeParent=1;resizeLast=0;collapsible=1;marginBottom=0;rounded=0;shadow=0;strokeWidth=1;" parent="WIyWlLk6GJQsqaUBKTNV-1" vertex="1">
          <mxGeometry x="360" y="722" width="160" height="168" as="geometry">
            <mxRectangle x="320" y="890" width="160" height="26" as="alternateBounds" />
          </mxGeometry>
        </mxCell>
        <mxCell id="G2s_k66Dnmn7m37SUlgd-66" value="Attributes : " style="text;align=left;verticalAlign=top;spacingLeft=4;spacingRight=4;overflow=hidden;rotatable=0;points=[[0,0.5],[1,0.5]];portConstraint=eastwest;" parent="G2s_k66Dnmn7m37SUlgd-51" vertex="1">
          <mxGeometry y="26" width="160" height="26" as="geometry" />
        </mxCell>
        <mxCell id="G2s_k66Dnmn7m37SUlgd-105" value="- playerName : String&#xa;- morsePreview : String" style="text;align=left;verticalAlign=top;spacingLeft=4;spacingRight=4;overflow=hidden;rotatable=0;points=[[0,0.5],[1,0.5]];portConstraint=eastwest;rounded=0;shadow=0;html=0;" parent="G2s_k66Dnmn7m37SUlgd-51" vertex="1">
          <mxGeometry y="52" width="160" height="38" as="geometry" />
        </mxCell>
        <mxCell id="G2s_k66Dnmn7m37SUlgd-54" value="" style="line;html=1;strokeWidth=1;align=left;verticalAlign=middle;spacingTop=-1;spacingLeft=3;spacingRight=3;rotatable=0;labelPosition=right;points=[];portConstraint=eastwest;" parent="G2s_k66Dnmn7m37SUlgd-51" vertex="1">
          <mxGeometry y="90" width="160" height="8" as="geometry" />
        </mxCell>
        <mxCell id="G2s_k66Dnmn7m37SUlgd-76" value="Operations :" style="text;align=left;verticalAlign=top;spacingLeft=4;spacingRight=4;overflow=hidden;rotatable=0;points=[[0,0.5],[1,0.5]];portConstraint=eastwest;" parent="G2s_k66Dnmn7m37SUlgd-51" vertex="1">
          <mxGeometry y="98" width="160" height="26" as="geometry" />
        </mxCell>
        <mxCell id="G2s_k66Dnmn7m37SUlgd-106" value="+ playAdventure() : void" style="text;align=left;verticalAlign=top;spacingLeft=4;spacingRight=4;overflow=hidden;rotatable=0;points=[[0,0.5],[1,0.5]];portConstraint=eastwest;rounded=0;shadow=0;html=0;" parent="G2s_k66Dnmn7m37SUlgd-51" vertex="1">
          <mxGeometry y="124" width="160" height="36" as="geometry" />
        </mxCell>
        <mxCell id="G2s_k66Dnmn7m37SUlgd-57" value="" style="endArrow=block;endSize=10;endFill=0;shadow=0;strokeWidth=3;rounded=0;edgeStyle=elbowEdgeStyle;elbow=vertical;fillColor=#a20025;strokeColor=#6F0000;" parent="WIyWlLk6GJQsqaUBKTNV-1" source="G2s_k66Dnmn7m37SUlgd-51" target="G2s_k66Dnmn7m37SUlgd-45" edge="1">
          <mxGeometry width="160" relative="1" as="geometry">
            <mxPoint x="300" y="163" as="sourcePoint" />
            <mxPoint x="300" y="163" as="targetPoint" />
          </mxGeometry>
        </mxCell>
        <mxCell id="G2s_k66Dnmn7m37SUlgd-87" value="LightSensor" style="swimlane;fontStyle=0;align=center;verticalAlign=top;childLayout=stackLayout;horizontal=1;startSize=26;horizontalStack=0;resizeParent=1;resizeLast=0;collapsible=1;marginBottom=0;rounded=0;shadow=0;strokeWidth=1;" parent="WIyWlLk6GJQsqaUBKTNV-1" vertex="1">
          <mxGeometry x="570" y="720" width="160" height="162" as="geometry">
            <mxRectangle x="320" y="890" width="160" height="26" as="alternateBounds" />
          </mxGeometry>
        </mxCell>
        <mxCell id="G2s_k66Dnmn7m37SUlgd-88" value="Attributes : " style="text;align=left;verticalAlign=top;spacingLeft=4;spacingRight=4;overflow=hidden;rotatable=0;points=[[0,0.5],[1,0.5]];portConstraint=eastwest;" parent="G2s_k66Dnmn7m37SUlgd-87" vertex="1">
          <mxGeometry y="26" width="160" height="26" as="geometry" />
        </mxCell>
        <mxCell id="G2s_k66Dnmn7m37SUlgd-91" value="uint16_t lightLevel&#xa;const channel_t channel" style="text;align=left;verticalAlign=top;spacingLeft=4;spacingRight=4;overflow=hidden;rotatable=0;points=[[0,0.5],[1,0.5]];portConstraint=eastwest;rounded=0;shadow=0;html=0;" parent="G2s_k66Dnmn7m37SUlgd-87" vertex="1">
          <mxGeometry y="52" width="160" height="38" as="geometry" />
        </mxCell>
        <mxCell id="G2s_k66Dnmn7m37SUlgd-89" value="" style="line;html=1;strokeWidth=1;align=left;verticalAlign=middle;spacingTop=-1;spacingLeft=3;spacingRight=3;rotatable=0;labelPosition=right;points=[];portConstraint=eastwest;" parent="G2s_k66Dnmn7m37SUlgd-87" vertex="1">
          <mxGeometry y="90" width="160" height="8" as="geometry" />
        </mxCell>
        <mxCell id="G2s_k66Dnmn7m37SUlgd-90" value="Operations :" style="text;align=left;verticalAlign=top;spacingLeft=4;spacingRight=4;overflow=hidden;rotatable=0;points=[[0,0.5],[1,0.5]];portConstraint=eastwest;" parent="G2s_k66Dnmn7m37SUlgd-87" vertex="1">
          <mxGeometry y="98" width="160" height="26" as="geometry" />
        </mxCell>
        <mxCell id="G2s_k66Dnmn7m37SUlgd-92" value="getLightLevel()" style="text;align=left;verticalAlign=top;spacingLeft=4;spacingRight=4;overflow=hidden;rotatable=0;points=[[0,0.5],[1,0.5]];portConstraint=eastwest;rounded=0;shadow=0;html=0;" parent="G2s_k66Dnmn7m37SUlgd-87" vertex="1">
          <mxGeometry y="124" width="160" height="38" as="geometry" />
        </mxCell>
        <mxCell id="G2s_k66Dnmn7m37SUlgd-113" value="" style="endArrow=block;endSize=10;endFill=0;shadow=0;strokeWidth=3;rounded=0;edgeStyle=elbowEdgeStyle;elbow=vertical;exitX=0.5;exitY=0;exitDx=0;exitDy=0;entryX=0.5;entryY=1;entryDx=0;entryDy=0;fillColor=#a20025;strokeColor=#6F0000;" parent="WIyWlLk6GJQsqaUBKTNV-1" source="G2s_k66Dnmn7m37SUlgd-17" target="zkfFHV4jXpPFQw0GAbJ--0" edge="1">
          <mxGeometry width="160" relative="1" as="geometry">
            <mxPoint x="30" y="558" as="sourcePoint" />
            <mxPoint x="-30" y="418" as="targetPoint" />
          </mxGeometry>
        </mxCell>
        <mxCell id="G2s_k66Dnmn7m37SUlgd-114" style="edgeStyle=orthogonalEdgeStyle;rounded=0;orthogonalLoop=1;jettySize=auto;html=1;entryX=0.25;entryY=0;entryDx=0;entryDy=0;fillColor=#b1ddf0;strokeColor=#10739e;strokeWidth=2;exitX=-0.003;exitY=0.429;exitDx=0;exitDy=0;exitPerimeter=0;" parent="WIyWlLk6GJQsqaUBKTNV-1" source="G2s_k66Dnmn7m37SUlgd-103" target="G2s_k66Dnmn7m37SUlgd-17" edge="1">
          <mxGeometry relative="1" as="geometry" />
        </mxCell>
        <mxCell id="G2s_k66Dnmn7m37SUlgd-117" style="edgeStyle=orthogonalEdgeStyle;rounded=0;orthogonalLoop=1;jettySize=auto;html=1;entryX=0.25;entryY=0;entryDx=0;entryDy=0;fillColor=#b1ddf0;strokeColor=#10739e;strokeWidth=2;exitX=-0.006;exitY=1.016;exitDx=0;exitDy=0;exitPerimeter=0;" parent="WIyWlLk6GJQsqaUBKTNV-1" source="G2s_k66Dnmn7m37SUlgd-103" target="zkfFHV4jXpPFQw0GAbJ--6" edge="1">
          <mxGeometry relative="1" as="geometry">
            <mxPoint x="310" y="220" as="sourcePoint" />
            <mxPoint x="-190" y="711" as="targetPoint" />
          </mxGeometry>
        </mxCell>
        <mxCell id="G2s_k66Dnmn7m37SUlgd-118" style="edgeStyle=orthogonalEdgeStyle;rounded=0;orthogonalLoop=1;jettySize=auto;html=1;entryX=0.75;entryY=0;entryDx=0;entryDy=0;fillColor=#b1ddf0;strokeColor=#10739e;strokeWidth=2;exitX=0;exitY=0.5;exitDx=0;exitDy=0;" parent="WIyWlLk6GJQsqaUBKTNV-1" source="G2s_k66Dnmn7m37SUlgd-104" target="zkfFHV4jXpPFQw0GAbJ--13" edge="1">
          <mxGeometry relative="1" as="geometry">
            <mxPoint x="329" y="267" as="sourcePoint" />
            <mxPoint y="690" as="targetPoint" />
          </mxGeometry>
        </mxCell>
        <mxCell id="G2s_k66Dnmn7m37SUlgd-119" style="edgeStyle=orthogonalEdgeStyle;rounded=0;orthogonalLoop=1;jettySize=auto;html=1;entryX=0;entryY=0.5;entryDx=0;entryDy=0;fillColor=#b1ddf0;strokeColor=#10739e;strokeWidth=2;exitX=0.879;exitY=1.004;exitDx=0;exitDy=0;exitPerimeter=0;" parent="WIyWlLk6GJQsqaUBKTNV-1" source="G2s_k66Dnmn7m37SUlgd-104" target="G2s_k66Dnmn7m37SUlgd-69" edge="1">
          <mxGeometry relative="1" as="geometry">
            <mxPoint x="530" y="360" as="sourcePoint" />
            <mxPoint x="370" y="740" as="targetPoint" />
          </mxGeometry>
        </mxCell>
        <mxCell id="G2s_k66Dnmn7m37SUlgd-121" style="edgeStyle=orthogonalEdgeStyle;rounded=0;orthogonalLoop=1;jettySize=auto;html=1;entryX=0.1;entryY=-0.024;entryDx=0;entryDy=0;fillColor=#b1ddf0;strokeColor=#10739e;strokeWidth=2;entryPerimeter=0;exitX=0.721;exitY=0.993;exitDx=0;exitDy=0;exitPerimeter=0;" parent="WIyWlLk6GJQsqaUBKTNV-1" source="G2s_k66Dnmn7m37SUlgd-104" target="G2s_k66Dnmn7m37SUlgd-87" edge="1">
          <mxGeometry relative="1" as="geometry">
            <mxPoint x="481" y="540" as="sourcePoint" />
            <mxPoint x="559.52" y="669" as="targetPoint" />
          </mxGeometry>
        </mxCell>
        <mxCell id="G2s_k66Dnmn7m37SUlgd-122" style="edgeStyle=orthogonalEdgeStyle;rounded=0;orthogonalLoop=1;jettySize=auto;html=1;entryX=0.07;entryY=-0.011;entryDx=0;entryDy=0;fillColor=#b1ddf0;strokeColor=#10739e;strokeWidth=2;entryPerimeter=0;exitX=1.042;exitY=0.333;exitDx=0;exitDy=0;exitPerimeter=0;" parent="WIyWlLk6GJQsqaUBKTNV-1" source="G2s_k66Dnmn7m37SUlgd-103" target="G2s_k66Dnmn7m37SUlgd-34" edge="1">
          <mxGeometry relative="1" as="geometry">
            <mxPoint x="790" y="100" as="sourcePoint" />
            <mxPoint x="883" y="476" as="targetPoint" />
          </mxGeometry>
        </mxCell>
        <mxCell id="G2s_k66Dnmn7m37SUlgd-123" value="1" style="text;html=1;align=center;verticalAlign=middle;resizable=0;points=[];autosize=1;strokeColor=none;fillColor=none;" parent="WIyWlLk6GJQsqaUBKTNV-1" vertex="1">
          <mxGeometry x="-237" y="650" width="25" height="26" as="geometry" />
        </mxCell>
        <mxCell id="G2s_k66Dnmn7m37SUlgd-125" value="1" style="text;html=1;align=center;verticalAlign=middle;resizable=0;points=[];autosize=1;strokeColor=none;fillColor=none;" parent="WIyWlLk6GJQsqaUBKTNV-1" vertex="1">
          <mxGeometry x="-42" y="650" width="25" height="26" as="geometry" />
        </mxCell>
        <mxCell id="G2s_k66Dnmn7m37SUlgd-126" value="1" style="text;html=1;align=center;verticalAlign=middle;resizable=0;points=[];autosize=1;strokeColor=none;fillColor=none;" parent="WIyWlLk6GJQsqaUBKTNV-1" vertex="1">
          <mxGeometry x="240" y="650" width="25" height="26" as="geometry" />
        </mxCell>
        <mxCell id="G2s_k66Dnmn7m37SUlgd-127" value="1" style="text;html=1;align=center;verticalAlign=middle;resizable=0;points=[];autosize=1;strokeColor=none;fillColor=none;" parent="WIyWlLk6GJQsqaUBKTNV-1" vertex="1">
          <mxGeometry x="553" y="691" width="25" height="26" as="geometry" />
        </mxCell>
        <mxCell id="G2s_k66Dnmn7m37SUlgd-128" value="1" style="text;html=1;align=center;verticalAlign=middle;resizable=0;points=[];autosize=1;strokeColor=none;fillColor=none;" parent="WIyWlLk6GJQsqaUBKTNV-1" vertex="1">
          <mxGeometry x="809" y="444" width="25" height="26" as="geometry" />
        </mxCell>
        <mxCell id="G2s_k66Dnmn7m37SUlgd-129" value="1" style="text;html=1;align=center;verticalAlign=middle;resizable=0;points=[];autosize=1;strokeColor=none;fillColor=none;" parent="WIyWlLk6GJQsqaUBKTNV-1" vertex="1">
          <mxGeometry x="578" y="438" width="25" height="26" as="geometry" />
        </mxCell>
      </root>
    </mxGraphModel>
  </diagram>
</mxfile>
